/*
Musical notes definitions. The value correspond to Hz of the note.
*/

// Note duration
constexpr uint8_t WHOLE_NOTE =      3;
constexpr uint8_t HALF_NOTE =       6;
constexpr uint8_t QUARTER_NOTE =    12;
constexpr uint8_t EIGHTH_NOTE =     24;

// Musical notes
constexpr uint16_t NOTE_B0  =   31;
constexpr uint16_t NOTE_C1  =   33;
constexpr uint16_t NOTE_CS1 =   35;
constexpr uint16_t NOTE_D1  =   37;
constexpr uint16_t NOTE_DS1 =   39;
constexpr uint16_t NOTE_E1  =   41;
constexpr uint16_t NOTE_F1  =   44;
constexpr uint16_t NOTE_FS1 =   46;
constexpr uint16_t NOTE_G1  =   49;
constexpr uint16_t NOTE_GS1 =   52;
constexpr uint16_t NOTE_A1  =   55;
constexpr uint16_t NOTE_AS1 =   58;
constexpr uint16_t NOTE_B1  =   62;
constexpr uint16_t NOTE_C2  =   65;
constexpr uint16_t NOTE_CS2 =   69;
constexpr uint16_t NOTE_D2  =   73;
constexpr uint16_t NOTE_DS2 =   78;
constexpr uint16_t NOTE_E2  =   82;
constexpr uint16_t NOTE_F2  =   87;
constexpr uint16_t NOTE_FS2 =   93;
constexpr uint16_t NOTE_G2  =   98;
constexpr uint16_t NOTE_GS2 =   104;
constexpr uint16_t NOTE_A2  =   110;
constexpr uint16_t NOTE_AS2 =   117;
constexpr uint16_t NOTE_B2  =   123;
constexpr uint16_t NOTE_C3  =   131;
constexpr uint16_t NOTE_CS3 =   139;
constexpr uint16_t NOTE_D3  =   147;
constexpr uint16_t NOTE_DS3 =   156;
constexpr uint16_t NOTE_E3 =    165;
constexpr uint16_t NOTE_F3 =    175;
constexpr uint16_t NOTE_FS3 =   185;
constexpr uint16_t NOTE_G3 =    196;
constexpr uint16_t NOTE_GS3 =   208;
constexpr uint16_t NOTE_A3 =    220;
constexpr uint16_t NOTE_AS3 =   233;
constexpr uint16_t NOTE_B3 =    247;
constexpr uint16_t NOTE_C4 =    262;
constexpr uint16_t NOTE_CS4 =   277;
constexpr uint16_t NOTE_D4 =    294;
constexpr uint16_t NOTE_DS4 =   311;
constexpr uint16_t NOTE_E4 =    330;
constexpr uint16_t NOTE_F4 =    349;
constexpr uint16_t NOTE_FS4 =   370;
constexpr uint16_t NOTE_G4 =    392;
constexpr uint16_t NOTE_GS4 =   415;
constexpr uint16_t NOTE_A4 =    440;
constexpr uint16_t NOTE_AS4 =   466;
constexpr uint16_t NOTE_B4 =    494;
constexpr uint16_t NOTE_C5 =    523;
constexpr uint16_t NOTE_CS5 =   554;
constexpr uint16_t NOTE_D5 =    587;
constexpr uint16_t NOTE_DS5 =   622;
constexpr uint16_t NOTE_E5 =    659;
constexpr uint16_t NOTE_F5 =    698;
constexpr uint16_t NOTE_FS5 =   740;
constexpr uint16_t NOTE_G5 =    784;
constexpr uint16_t NOTE_GS5 =   831;
constexpr uint16_t NOTE_A5 =    880;
constexpr uint16_t NOTE_AS5 =   932;
constexpr uint16_t NOTE_B5 =    988;
constexpr uint16_t NOTE_C6 =    1047;
constexpr uint16_t NOTE_CS6 =   1109;
constexpr uint16_t NOTE_D6 =    1175;
constexpr uint16_t NOTE_DS6 =   1245;
constexpr uint16_t NOTE_E6 =    1319;
constexpr uint16_t NOTE_F6 =    1397;
constexpr uint16_t NOTE_FS6 =   1480;
constexpr uint16_t NOTE_G6 =    1568;
constexpr uint16_t NOTE_GS6 =   1661;
constexpr uint16_t NOTE_A6 =    1760;
constexpr uint16_t NOTE_AS6 =   1865;
constexpr uint16_t NOTE_B6 =    1976;
constexpr uint16_t NOTE_C7 =    2093;
constexpr uint16_t NOTE_CS7 =   2217;
constexpr uint16_t NOTE_D7 =    2349;
constexpr uint16_t NOTE_DS7 =   2489;
constexpr uint16_t NOTE_E7 =    2637;
constexpr uint16_t NOTE_F7 =    2794;
constexpr uint16_t NOTE_FS7 =   2960;
constexpr uint16_t NOTE_G7 =    3136;
constexpr uint16_t NOTE_GS7 =   3322;
constexpr uint16_t NOTE_A7 =    3520;
constexpr uint16_t NOTE_AS7 =   3729;
constexpr uint16_t NOTE_B7 =    3951;
constexpr uint16_t NOTE_C8 =    4186;
constexpr uint16_t NOTE_CS8 =   4435;
constexpr uint16_t NOTE_D8 =    4699;
constexpr uint16_t NOTE_DS8 =   4978;
constexpr uint16_t NOTE_SILENCE = 0;